<svg xmlns="http://www.w3.org/2000/svg" version="1.1" xmlns:xlink="http://www.w3.org/1999/xlink" xmlns:svgjs="http://svgjs.dev/svgjs" width="1000" height="252" viewBox="0 0 1000 252"><g transform="matrix(1,0,0,1,-0.6060606060606233,0.07435743507387826)"><svg viewBox="0 0 396 100" data-background-color="#ffffff" preserveAspectRatio="xMidYMid meet" height="252" width="1000" xmlns="http://www.w3.org/2000/svg" xmlns:xlink="http://www.w3.org/1999/xlink"><g id="tight-bounds" transform="matrix(1,0,0,1,0.2400000000000091,-0.029506918680112904)"><svg viewBox="0 0 395.52 100.05901383736024" height="100.05901383736024" width="395.52"><g><svg viewBox="0 0 561.4309128846298 142.03130936752876" height="100.05901383736024" width="395.52"><g><rect width="5.907264106455049" height="142.03130936752876" x="144.53960661467985" y="0" fill="#9d7048" opacity="1" stroke-width="0" stroke="transparent" fill-opacity="1" class="rect-o-0" data-fill-palette-color="primary" rx="1%" id="o-0" data-palette-color="#9d7048"></rect></g><g transform="matrix(1,0,0,1,165.9109128846298,0.3533117148445939)"><svg viewBox="0 0 395.52 141.32468593783958" height="141.32468593783958" width="395.52"><g id="textblocktransform"><svg viewBox="0 0 395.52 141.32468593783958" height="141.32468593783958" width="395.52" id="textblock"><g><svg viewBox="0 0 395.52 141.32468593783958" height="141.32468593783958" width="395.52"><g transform="matrix(1,0,0,1,0,0)"><svg width="395.52" viewBox="3.5000009536743164 -37.599998474121094 230.0500030517578 78.69999694824219" height="141.32468593783958" data-palette-color="#9d7048"><svg></svg><svg></svg><g class="wordmark-text-0" data-fill-palette-color="primary" id="text-0"><path xmlns="http://www.w3.org/2000/svg" d="M18.7 0.5v0c-3.133 0-5.84-0.75-8.12-2.25-2.287-1.5-4.037-3.657-5.25-6.47-1.22-2.82-1.83-6.213-1.83-10.18v0c0-4.067 0.633-7.533 1.9-10.4 1.267-2.867 3.05-5.05 5.35-6.55 2.3-1.5 5-2.25 8.1-2.25v0c2.233 0 4.3 0.457 6.2 1.37 1.9 0.92 3.483 2.13 4.75 3.63 1.267 1.5 2.017 3.117 2.25 4.85v0c0.033 0.2 0.033 0.34 0 0.42-0.033 0.087-0.133 0.163-0.3 0.23v0l-2.85 0.45c-0.133 0.033-0.233 0.017-0.3-0.05-0.067-0.067-0.117-0.183-0.15-0.35v0c-0.267-1.433-0.84-2.717-1.72-3.85-0.887-1.133-2.003-2.033-3.35-2.7-1.353-0.667-2.88-1-4.58-1v0c-2.433 0-4.49 0.617-6.17 1.85-1.687 1.233-2.97 3.033-3.85 5.4-0.887 2.367-1.33 5.25-1.33 8.65v0c0 3.567 0.433 6.55 1.3 8.95 0.867 2.4 2.16 4.2 3.88 5.4 1.713 1.2 3.803 1.8 6.27 1.8v0c1.733 0 3.26-0.3 4.58-0.9 1.313-0.6 2.397-1.4 3.25-2.4 0.847-1 1.497-2.083 1.95-3.25 0.447-1.167 0.687-2.283 0.72-3.35v0-3.35c0.033-0.333-0.133-0.5-0.5-0.5v0h-8.7c-0.167 0-0.283-0.033-0.35-0.1-0.067-0.067-0.1-0.167-0.1-0.3v0-1.75c0-0.267 0.117-0.4 0.35-0.4v0h12.2c0.167 0 0.3 0.05 0.4 0.15 0.1 0.1 0.15 0.217 0.15 0.35v0 17.75c0 0.233-0.05 0.39-0.15 0.47-0.1 0.087-0.233 0.13-0.4 0.13v0h-1.05c-0.2 0-0.373-0.027-0.52-0.08-0.153-0.047-0.247-0.203-0.28-0.47v0l-0.3-4.9c-0.033-0.167-0.09-0.25-0.17-0.25-0.087 0-0.18 0.083-0.28 0.25v0c-0.633 1.1-1.45 2.1-2.45 3-1 0.9-2.2 1.617-3.6 2.15-1.4 0.533-3.05 0.8-4.95 0.8zM67.55-0.85v0c0.067 0.2 0.05 0.39-0.05 0.57-0.1 0.187-0.25 0.28-0.45 0.28v0h-2.75c-0.3 0-0.533-0.183-0.7-0.55v0l-6.75-16.15c-0.133-0.367-0.5-0.55-1.1-0.55v0h-9.45c-0.233 0-0.39 0.05-0.47 0.15-0.087 0.1-0.13 0.233-0.13 0.4v0 16c0 0.467-0.217 0.7-0.65 0.7v0h-2.45c-0.267 0-0.44-0.05-0.52-0.15-0.087-0.1-0.13-0.25-0.13-0.45v0-35.9c0-0.4 0.183-0.6 0.55-0.6v0h13.5c3.8 0 6.75 0.79 8.85 2.37 2.1 1.587 3.15 3.947 3.15 7.08v0c0 1.933-0.367 3.557-1.1 4.87-0.733 1.32-1.673 2.363-2.82 3.13-1.153 0.767-2.313 1.317-3.48 1.65v0c-0.233 0.033-0.3 0.183-0.2 0.45v0zM54.45-20.15v0c3.2 0 5.607-0.56 7.22-1.68 1.62-1.113 2.43-2.92 2.43-5.42v0c0-2.367-0.7-4.117-2.1-5.25-1.4-1.133-3.45-1.7-6.15-1.7v0h-9.5c-0.433 0-0.65 0.15-0.65 0.45v0 13.05c0 0.367 0.15 0.55 0.45 0.55v0zM76.4-36.5v0c0-0.4 0.183-0.6 0.55-0.6v0h21.75c0.3 0 0.45 0.15 0.45 0.45v0l-0.05 2.05c0 0.333-0.167 0.5-0.5 0.5v0h-17.85c-0.4 0-0.6 0.183-0.6 0.55v0 12.85c0 0.333 0.183 0.5 0.55 0.5v0h13.55c0.3 0 0.45 0.15 0.45 0.45v0 2.1c0 0.133-0.023 0.233-0.07 0.3-0.053 0.067-0.18 0.1-0.38 0.1v0h-13.6c-0.333 0-0.5 0.167-0.5 0.5v0 13.25c0 0.333 0.167 0.5 0.5 0.5v0h18.65c0.367 0 0.55 0.15 0.55 0.45v0 2.1c0 0.133-0.04 0.24-0.12 0.32-0.087 0.087-0.213 0.13-0.38 0.13v0h-22.35c-0.4 0-0.6-0.2-0.6-0.6v0zM107.5-36.5v0c0-0.4 0.183-0.6 0.55-0.6v0h21.75c0.3 0 0.45 0.15 0.45 0.45v0l-0.05 2.05c0 0.333-0.167 0.5-0.5 0.5v0h-17.85c-0.4 0-0.6 0.183-0.6 0.55v0 12.85c0 0.333 0.183 0.5 0.55 0.5v0h13.55c0.3 0 0.45 0.15 0.45 0.45v0 2.1c0 0.133-0.023 0.233-0.07 0.3-0.053 0.067-0.18 0.1-0.38 0.1v0h-13.6c-0.333 0-0.5 0.167-0.5 0.5v0 13.25c0 0.333 0.167 0.5 0.5 0.5v0h18.65c0.367 0 0.55 0.15 0.55 0.45v0 2.1c0 0.133-0.04 0.24-0.12 0.32-0.087 0.087-0.213 0.13-0.38 0.13v0h-22.35c-0.4 0-0.6-0.2-0.6-0.6v0zM163.2-37.1h2.3c0.333 0 0.5 0.183 0.5 0.55v0 36c0 0.167-0.04 0.3-0.12 0.4-0.087 0.1-0.23 0.15-0.43 0.15v0h-1.75c-0.2 0-0.383-0.017-0.55-0.05-0.167-0.033-0.317-0.133-0.45-0.3v0l-20.15-29.5c-0.167-0.233-0.307-0.333-0.42-0.3-0.12 0.033-0.18 0.15-0.18 0.35v0 29.25c0 0.367-0.2 0.55-0.6 0.55v0h-2.15c-0.4 0-0.6-0.2-0.6-0.6v0-35.9c0-0.4 0.183-0.6 0.55-0.6v0h2.1c0.233 0 0.41 0.027 0.53 0.08 0.113 0.047 0.237 0.17 0.37 0.37v0l19.8 29.1c0.2 0.233 0.377 0.317 0.53 0.25 0.147-0.067 0.22-0.2 0.22-0.4v0-28.85c0-0.367 0.167-0.55 0.5-0.55zM176.4-36.5v0c0-0.4 0.183-0.6 0.55-0.6v0h21.75c0.3 0 0.45 0.15 0.45 0.45v0l-0.05 2.05c0 0.333-0.167 0.5-0.5 0.5v0h-17.85c-0.4 0-0.6 0.183-0.6 0.55v0 12.85c0 0.333 0.183 0.5 0.55 0.5v0h13.55c0.3 0 0.45 0.15 0.45 0.45v0 2.1c0 0.133-0.023 0.233-0.07 0.3-0.053 0.067-0.18 0.1-0.38 0.1v0h-13.6c-0.333 0-0.5 0.167-0.5 0.5v0 13.25c0 0.333 0.167 0.5 0.5 0.5v0h18.65c0.367 0 0.55 0.15 0.55 0.45v0 2.1c0 0.133-0.04 0.24-0.12 0.32-0.087 0.087-0.213 0.13-0.38 0.13v0h-22.35c-0.4 0-0.6-0.2-0.6-0.6v0zM233.1-0.85v0c0.067 0.2 0.05 0.39-0.05 0.57-0.1 0.187-0.25 0.28-0.45 0.28v0h-2.75c-0.3 0-0.533-0.183-0.7-0.55v0l-6.75-16.15c-0.133-0.367-0.5-0.55-1.1-0.55v0h-9.45c-0.233 0-0.39 0.05-0.47 0.15-0.087 0.1-0.13 0.233-0.13 0.4v0 16c0 0.467-0.217 0.7-0.65 0.7v0h-2.45c-0.267 0-0.44-0.05-0.52-0.15-0.087-0.1-0.13-0.25-0.13-0.45v0-35.9c0-0.4 0.183-0.6 0.55-0.6v0h13.5c3.8 0 6.75 0.79 8.85 2.37 2.1 1.587 3.15 3.947 3.15 7.08v0c0 1.933-0.367 3.557-1.1 4.87-0.733 1.32-1.673 2.363-2.82 3.13-1.153 0.767-2.313 1.317-3.48 1.65v0c-0.233 0.033-0.3 0.183-0.2 0.45v0zM220-20.15v0c3.2 0 5.61-0.56 7.23-1.68 1.613-1.113 2.42-2.92 2.42-5.42v0c0-2.367-0.7-4.117-2.1-5.25-1.4-1.133-3.45-1.7-6.15-1.7v0h-9.5c-0.433 0-0.65 0.15-0.65 0.45v0 13.05c0 0.367 0.15 0.55 0.45 0.55v0z" fill="#9d7048" fill-rule="nonzero" stroke="none" stroke-width="1" stroke-linecap="butt" stroke-linejoin="miter" stroke-miterlimit="10" stroke-dasharray="" stroke-dashoffset="0" font-family="none" font-weight="none" font-size="none" text-anchor="none" style="mix-blend-mode: normal" data-fill-palette-color="primary" opacity="1"></path><path xmlns="http://www.w3.org/2000/svg" d="M5.2 4.6v0c0-0.4 0.183-0.6 0.55-0.6v0h2.7c0.333 0 0.5 0.2 0.5 0.6v0 33c0 0.333 0.167 0.5 0.5 0.5v0h17.65c0.333 0 0.5 0.15 0.5 0.45v0 2.1c0 0.133-0.033 0.24-0.1 0.32-0.067 0.087-0.2 0.13-0.4 0.13v0h-21.3c-0.233 0-0.39-0.05-0.47-0.15-0.087-0.1-0.13-0.25-0.13-0.45v0zM35.55 4h2.7c0.333 0 0.5 0.2 0.5 0.6v0 35.75c0 0.3-0.05 0.5-0.15 0.6-0.1 0.1-0.3 0.15-0.6 0.15v0h-2.3c-0.3 0-0.49-0.043-0.57-0.13-0.087-0.08-0.13-0.237-0.13-0.47v0-35.9c0-0.4 0.183-0.6 0.55-0.6zM49.15 4.6v0c0-0.4 0.183-0.6 0.55-0.6v0h21.25c0.3 0 0.45 0.15 0.45 0.45v0 2.05c0 0.333-0.183 0.5-0.55 0.5v0h-17.35c-0.4 0-0.6 0.183-0.6 0.55v0 13.5c0 0.3 0.183 0.45 0.55 0.45v0h14c0.3 0 0.45 0.15 0.45 0.45v0 2.05c0 0.3-0.167 0.45-0.5 0.45v0h-14c-0.333 0-0.5 0.167-0.5 0.5v0 15.6c0 0.367-0.183 0.55-0.55 0.55v0h-2.6c-0.233 0-0.39-0.043-0.47-0.13-0.087-0.08-0.13-0.237-0.13-0.47v0zM78.85 4.6v0c0-0.4 0.183-0.6 0.55-0.6v0h21.75c0.3 0 0.45 0.15 0.45 0.45v0l-0.05 2.05c0 0.333-0.167 0.5-0.5 0.5v0h-17.85c-0.4 0-0.6 0.183-0.6 0.55v0 12.85c0 0.333 0.183 0.5 0.55 0.5v0h13.55c0.3 0 0.45 0.15 0.45 0.45v0 2.1c0 0.133-0.023 0.233-0.07 0.3-0.053 0.067-0.18 0.1-0.38 0.1v0h-13.6c-0.333 0-0.5 0.167-0.5 0.5v0 13.25c0 0.333 0.167 0.5 0.5 0.5v0h18.65c0.367 0 0.55 0.15 0.55 0.45v0 2.1c0 0.133-0.04 0.24-0.12 0.32-0.087 0.087-0.213 0.13-0.38 0.13v0h-22.35c-0.4 0-0.6-0.2-0.6-0.6v0z" fill="#9d7048" fill-rule="nonzero" stroke="none" stroke-width="1" stroke-linecap="butt" stroke-linejoin="miter" stroke-miterlimit="10" stroke-dasharray="" stroke-dashoffset="0" font-family="none" font-weight="none" font-size="none" text-anchor="none" style="mix-blend-mode: normal" data-fill-palette-color="primary" opacity="1"></path></g></svg></g></svg></g></svg></g></svg></g><g transform="matrix(1,0,0,1,0,0.3533117148445939)"><svg viewBox="0 0 129.07556445118496 141.32468593783958" height="141.32468593783958" width="129.07556445118496"><g><svg xmlns="http://www.w3.org/2000/svg" xmlns:xlink="http://www.w3.org/1999/xlink" version="1.1" x="0" y="0" viewBox="0 0 91.33316802978516 100.00057983398438" enable-background="new 0 0 91.333 100" xml:space="preserve" width="129.07556445118496" height="141.32468593783958" class="icon-icon-0" data-fill-palette-color="accent" id="icon-0"><path d="M81.502 59.479c-14.446 17.343-29.439 7.493-34.332 3.457 3.772-4.121 5.505-6.361 12.054-11.758 6.771 2.767 18.887-2.487 18.887-2.487-8.151 2.136-14.382 0.925-16.595 0.339 0.475-0.371 8.516-6.191 10.95-9.557 6.731 0.208 12.291-5.573 12.291-5.573-0.182-0.156-3.587 2.454-10.025 2.767 6.666-9.792 6.367-18.802 6.367-18.802s-2.461 8.223-8.724 17.239c-1.283-6.399 0.352-10.755 0.169-10.898 0 0-4.362 7.187-2.351 13.795-3.424 3.913-8.821 7.292-10.813 8.808-0.156-0.41-2.239-7.239-0.215-17.324 0 0-5.488 12.682-2.051 19.257-4.205 3.236-5.332 4.03-12.356 11.881-15.905-11.907-2.249-33.203 9.661-38.164C66.672 17.35 71.776 18.379 83.006 0 95.304 18.216 93.287 45.338 81.502 59.479z" fill="#52b69a" data-fill-palette-color="accent"></path><path d="M13.623 57.629c7.236 3.308 12.252 7.8 15.699 12.097 0.042-0.124 0.095-0.228 0.134-0.371C36.005 45.781 0 49.062 0 49.062s4.974 7.656 7.747 16.003c3.207 9.674 16.312 17.714 21.022 6.224C25.368 66.711 20.504 61.705 13.623 57.629z" fill="#52b69a" data-fill-palette-color="accent"></path><path d="M47.17 62.936c-0.042-0.053-2.487-2.24-2.448-2.292-6.172 6.797-8.578 12.604-9.164 20.006-0.934-2.545-2.802-6.621-6.237-10.924-0.163 0.566-0.352 1.074-0.553 1.562 3.659 4.928 5.075 11.641 5.908 13.841 0 6.146 0.674 9.219 1.214 14.349 0 0 3.308 1.953 4.229-1.692C38.251 94.699 36.418 73.456 47.17 62.936z" fill="#52b69a" data-fill-palette-color="accent"></path></svg></g></svg></g></svg></g><defs></defs></svg><rect width="395.52" height="100.05901383736024" fill="none" stroke="none" visibility="hidden"></rect></g></svg></g></svg>